<svg xmlns="http://www.w3.org/2000/svg" viewBox="0 0 1440 320" width="1440" height="320">
  <defs>
    <style>
      .rotate {
        animation: move 8s linear infinite;
      }

      @keyframes move {
        from { transform: rotate(0deg) translate(280px) rotate(0deg)}
    to   { transform: rotate(-360deg) translate(280px) rotate(360deg); }
      }
    </style>
  </defs>
  <rect width="100%" height="100%" fill="#33425B"/>
  <g id="moon">
    <circle fill="#93959E" cx="305.5" cy="350.4" r="135.7" />
    <circle fill="#D2D3D4" cx="291.1" cy="333.7" r="105.4" />
    <circle fill="#D2D3D4" cx="346.2" cy="253.8" r="25.4" />
    <circle fill="#D2D3D4" cx="406.3" cy="325.9" r="24.5" />
    <circle fill="#D2D3D4" cx="247.8" cy="419.6" r="27.6" />
    <circle fill="#FAFAFA" cx="338.9" cy="249.5" r="17.7" />
    <circle fill="#FAFAFA" cx="400.9" cy="323.7" r="19.1" />
    <circle fill="#FAFAFA" cx="273.5" cy="320.1" r="18.7" />
    <circle fill="#FAFAFA" cx="245.3" cy="415.9" r="20.7" />
    <circle fill="#FAFAFA" cx="217.5" cy="282.2" r="7.1" />
    <circle fill="#FAFAFA" cx="337.5" cy="361.5" r="6.9" />
    <circle opacity=".52" fill="#D2D3D4" cx="374.5" cy="437.2" r="12.4" />
  </g>
  <g id="astronaut">
    <ellipse opacity=".19" fill="#1A222D" cx="297.7" cy="225.2" rx="40.7" ry="10" />
    <circle fill="#9B835C" cx="270.1" cy="179.8" r="4.8" />
    <circle fill="#9B835C" cx="318.9" cy="202" r="4.8" />
    <path fill="#86878E" d="M321 184.5c-.7-6.4-10.6-8.2-10.6-8.2s-11.1 1.1-18.1.7c-6.7-.4-9.7 5.5-10 6.1-5 2.9-7.9-4.9-7.9-4.9l-7.9 7.8c6.7 7.9 6.4 10.2 11.1 11.8 2 .7 4.6-.4 7-1.9l.2.9.2 5.7 1.6 17.4h11.6l2.6-15 1.9 15h9.9l3.3-17 7.9-2.2c0 .1-2.1-9.8-2.8-16.2z"
    />
    <circle id="head" class="drop" fill="#93959E" cx="300.9" cy="158.7" r="20.2" />
    <path id="mask" opacity=".57" fill="#1A222D" d="M310.7 169.7c.5-1.4.8-3 .8-4.6 0-7.3-5.9-13.3-13.3-13.3s-13.3 5.9-13.3 13.3c0 1.5.3 3 .7 4.3 4 1.9 13.2 5 25.1.3z" />
    <g fill="#575C66">
      <path d="M286.9 217c-2.3.8-3.9 2.4-3.9 4.1 0 2.7 3.5 4.8 7.7 4.8 4.3 0 7.7-2.1 7.7-4.8 0-.7-.3-1.4-.7-2-5.7 2.3-10.8-2.1-10.8-2.1zM313.2 216.3c-2.3 3-8 2.9-10.3 2.7-.3.5-.4 1-.4 1.6 0 2.7 3.3 4.8 7.4 4.8s7.4-2.1 7.4-4.8c0-1.9-1.7-3.5-4.1-4.3zM286.1 217zM313.3 216.2h-.1c-.1.1 0 .1.1 0-.1 0-.1 0 0 0z"
      />
    </g>
    <ellipse fill="#93959E" cx="300.5" cy="190.6" rx="11.1" ry="8.8" />
    <path fill="#93959E" d="M267.1 153.6h2.4V226h-2.4z" />
    <ellipse transform="matrix(.9 .436 -.436 .9 103.474 -100.119)" fill="#9B835C" cx="269.8" cy="175.3" rx="3" ry="1.4" />
    <path fill="#B7CAAF" d="M235.7 143.7h33.8V166h-33.8z" />
    <path fill="#D9E9D7" d="M252.3 147.1l2.2 4.5 5 .7-3.6 3.5.9 5-4.5-2.4-4.4 2.4.8-5-3.5-3.5 4.9-.7z" />
  </g>
  <g id="bang">
    <path fill="#E0715D" d="M301.3 130.2c-.5 0-.9-.2-1.3-.5-.4-.4-.5-.8-.5-1.3s.2-.9.5-1.3c.4-.4.8-.5 1.3-.5s.9.2 1.3.5c.4.4.5.8.5 1.3s-.2.9-.5 1.3c-.4.3-.8.5-1.3.5zm-1.7-17.4h3.4v3.1l-.7 8.7h-1.9l-.7-8.7v-3.1z" />
    <path fill="none" stroke="#E0715D" stroke-miterlimit="10" d="M314.1 131.7l10.1-9.7M327.7 147.1l10.7-5.4M276.7 124l9.4 10M271.3 138.4l9.3 3.3" />
  </g>
  <g id="stars" opacity=".31" fill="#D2D3D4">
    <circle cx="71" cy="74.4" r="6" />
    <circle cx="503" cy="175.4" r="6" />
    <circle opacity=".49" cx="461" cy="38.4" r="6" />
    <circle cx="108" cy="455.4" r="6" />
    <circle cx="65" cy="579.4" r="6" />
    <circle cx="531" cy="455.4" r="6" />
    <circle opacity=".44" cx="461" cy="607.4" r="6" />
    <circle opacity=".44" cx="136" cy="225.4" r="6" />
  </g>
  <def>
  <g id="cow">
    <path class="legl" fill="#B9B9BA" d="M275.1 90.6l-15.2 6.5s-3.7 3 0 2.8c3.7-.2 17.9-2.8 17.9-2.8l-2.7-6.5z" />
    <path fill="#D2D3D4" d="M267.9 46.7s13.1-3.7 15.3 5.9c0 0 5 17.5 0 22.5 0 0-10.9 5.9-18.1 0 0 0-3.4-1.9-3.1-8.7s1.5-19 5.9-19.7z" />
    <path fill="#93959E" d="M281.7 49.8s7.1 1.6 9.3 0c2.2-1.6 0 3.7 0 3.7s-5 4.7-7.2 2.8c-2.2-1.8-2.1-6.5-2.1-6.5z" />
    <path fill="#D2D3D4" d="M266.7 50.3s-7.1 1.6-9.3 0c-2.2-1.6 0 3.7 0 3.7s5 4.7 7.2 2.8c2.1-1.8 2.1-6.5 2.1-6.5z" />
    <path fill="#93959E" d="M273.1 46s3 19.5 12.2 16.7c0 0 .4-18.5-12.2-16.7z" />
    <circle fill="#93959E" cx="276.9" cy="64.1" r="1.2" />
    <circle fill="#93959E" cx="269.9" cy="64.2" r="1.1" />
    <path class="legl" fill="#D2D3D4" d="M276.3 95.3l-16.5 7s-4 3.3 0 3c4-.2 19.4-3 19.4-3l-2.9-7z" />
    <path class="legr" fill="#B9B9BA" d="M331.4 89.2l15.2 6.5s3.7 3 0 2.8c-3.7-.2-17.9-2.8-17.9-2.8l2.7-6.5z" />
    <path class="legr" fill="#D2D3D4" d="M330.2 93.9l16.5 7s4 3.3 0 3-19.4-3-19.4-3l2.9-7z" />
    <path fill="#D2D3D4" d="M273.1 81.2s-5.1-23.8 45.7-19.4c0 0 17.3 4.2 16.1 22.4S330 101 330 101l-53.1 1.2s-1-2.2-1.9-5.4c-1.5-4.3-2.9-10.6-1.9-15.6z" />
    <path fill="#D6AA51" d="M267.9 49.9c-.9.3-1.9-.2-2.2-1.1l-1.2-3.6c-.3-.9.2-1.9 1.1-2.2.9-.3 1.9.2 2.2 1.1l1.2 3.6c.3.9-.2 1.9-1.1 2.2zM278.8 49.6c-.9-.3-1.4-1.3-1.1-2.2l1.2-3.6c.3-.9 1.3-1.4 2.2-1.1.9.3 1.4 1.3 1.1 2.2l-1.2 3.6c-.3.9-1.3 1.4-2.2 1.1z"
    />
    <path fill="#E0715D" d="M262 70.1s13.7-4.1 23.3 0c0 0 .9 7-9.6 8.1 0 0-12.7 2.3-13.7-8.1z" />
    <path fill="#D6AA51" d="M276.3 74.8c-.3 0-.6-.3-.6-.6v-2.6c0-.3.3-.6.6-.6s.6.3.6.6v2.6c0 .3-.3.6-.6.6zM270.5 75c-.3 0-.6-.3-.6-.6v-2.6c0-.3.3-.6.6-.6s.6.3.6.6v2.6c0 .3-.3.6-.6.6z" />
    <path fill="#93959E" d="M293.9 62.6s-1.8 9.1 6.4 7.5c8.2-1.6 8.6 3.6 8.6 3.6s8.9 1.2 6.1-3.3c-2.8-4.4-3.8-9-3.8-9s-14.6-1.9-17.3 1.2zM273.4 85.1s3.4-7.7 5.8-1.3c2.3 6.4 9.7 6.3 10.2 6s9.7 5.5-.1 6c-9.8.5-14.9 0-14.9 0s-2.2-9.5-1-10.7zM333.7 75s-16.9 7.6-10 9.1c7.1 1.5 5 6.6 5 6.6s4.5 3.4 5.8-1.4c1.6-5.9-.2-12.9-.8-14.3zM310.3 90.6s.7-13.5 4.9-7.2 1.5 14.1 5.6 11.8c4.2-2.3 0 6.1 0 6.1l-14.1.3c.1 0-6.3-8.9 3.6-11zM290.6 79.1s1.2-4.5 3.9-1.5c2.7 2.9 4.3 2.8 4.9 2.8s3.8 6.5-1 5.2-7.7-1.1-7.9-.7c-.1.3-6.2-.4.1-5.8zM330.5 69.3l18.5-2v1.1L331.1 71z"
    />
    <path fill="#626368" d="M347.5 66.3l4-4.4-1.3 2.9 1.3-.6-.8 2.1 1.9 1-2 1.9 1.5 2-4.9-2z" />
    <ellipse fill="none" stroke="#D6AA51" stroke-miterlimit="10" cx="273.6" cy="42" rx="15.6" ry="6" />
    <circle opacity=".19" fill="#93959E" cx="273.3" cy="57" r="28.7" />
  </g>

    <g id="dm" stroke-linecap="round" fill-rule="evenodd" font-size="9pt" fill="#fff"><path d="M 201 73.8 L 184.5 74.9 Q 188.9 61.6 192.9 48.8 A 1292.223 1292.223 0 0 0 195.506 40.419 A 1467.901 1467.901 0 0 0 196.4 37.5 Q 198.2 31.6 200 25.8 Q 201.8 20 203.35 14.6 Q 204.9 9.2 206.1 4.6 Q 211.6 4.6 216.5 4 Q 221.4 3.4 227.1 2.9 A 473.969 473.969 0 0 0 226.798 5.16 Q 226.641 6.353 226.473 7.673 A 769.939 769.939 0 0 0 226.45 7.85 A 252.097 252.097 0 0 1 225.869 12.116 A 288.228 288.228 0 0 1 225.65 13.6 A 1015.441 1015.441 0 0 1 224.824 19.003 A 1119.404 1119.404 0 0 1 224.7 19.8 Q 224.2 23 223.5 28 A 411.888 411.888 0 0 1 223.119 30.656 Q 222.52 34.739 221.658 40.139 A 1155.937 1155.937 0 0 1 221.6 40.5 L 222.9 40.5 Q 225.656 33.279 227.508 28.359 A 1592.404 1592.404 0 0 0 227.7 27.85 Q 229.4 23.333 230.539 20.296 A 4378.981 4378.981 0 0 0 230.8 19.6 Q 232 16.4 233.25 13.35 Q 234.5 10.3 235.65 7.55 Q 236.638 5.187 237.516 3.303 A 79.647 79.647 0 0 1 237.8 2.7 A 91.108 91.108 0 0 0 240.808 2.411 A 75.828 75.828 0 0 0 242.5 2.2 Q 244.7 1.9 246.9 1.55 Q 249.1 1.2 251.35 0.85 Q 253.6 0.5 256.3 0 Q 255.3 5.8 254.4 11.9 Q 253.5 18 252.8 24.05 Q 252.1 30.1 251.45 36 Q 250.8 41.9 250.3 47.2 Q 249.1 59.6 248.2 71.4 L 230.8 74.5 Q 230.8 74 230.95 71.8 A 391.154 391.154 0 0 1 231.077 70.009 Q 231.194 68.4 231.35 66.4 Q 231.6 63.2 232.05 59.3 L 232.95 51.5 A 362.461 362.461 0 0 1 233.776 44.866 A 329.243 329.243 0 0 1 233.9 43.95 Q 234.283 41.155 234.666 38.976 A 80.805 80.805 0 0 1 234.9 37.7 L 234 37.7 Q 232.6 41.9 230.9 46.55 Q 229.2 51.2 227.45 56 Q 225.7 60.8 224 65.4 A 182.192 182.192 0 0 0 221.852 71.536 A 154.496 154.496 0 0 0 221 74.2 Q 218.594 74.269 216.66 74.361 A 136.773 136.773 0 0 0 215 74.45 A 7688.39 7688.39 0 0 0 212.659 74.591 Q 211.056 74.687 209.2 74.8 L 212.4 37.7 L 210.9 37.7 Q 210.716 38.897 210.023 41.578 A 135.948 135.948 0 0 1 209.9 42.05 A 1779.389 1779.389 0 0 1 209.152 44.891 Q 208.641 46.828 208.05 49.05 Q 207 53 205.8 57.25 Q 204.6 61.5 203.55 65.15 A 1092.327 1092.327 0 0 1 203.047 66.894 Q 202.325 69.387 201.8 71.15 Q 201.139 73.368 201.013 73.76 A 4.235 4.235 0 0 1 201 73.8 Z M 307.8 72.6 L 293.2 76 A 3607.132 3607.132 0 0 0 298.22 51.489 A 3262.816 3262.816 0 0 0 298.9 48.1 A 951.149 951.149 0 0 1 300.765 37.644 A 1053.786 1053.786 0 0 1 301.05 36.1 Q 302.2 29.9 303.2 23.85 Q 304.2 17.8 305 12.25 A 220.028 220.028 0 0 0 305.695 7.002 Q 305.998 4.468 306.2 2.2 A 41.082 41.082 0 0 0 307.119 2.261 Q 307.837 2.3 308.4 2.3 L 310.5 2.3 Q 311.462 2.3 312.709 2.276 A 197.938 197.938 0 0 0 313.9 2.25 Q 315.9 2.2 317.9 2.1 Q 319.9 2 322.2 1.9 A 475.994 475.994 0 0 1 324.131 12.119 A 422.076 422.076 0 0 1 324.7 15.4 Q 325.8 21.1 326.95 27.1 A 673.089 673.089 0 0 0 327.777 31.347 Q 328.107 33.011 328.413 34.499 A 336.46 336.46 0 0 0 329 37.3 A 346.539 346.539 0 0 0 329.369 35.426 Q 329.556 34.462 329.761 33.382 A 620.737 620.737 0 0 0 329.9 32.65 A 312.127 312.127 0 0 1 330.706 28.534 A 358.681 358.681 0 0 1 331 27.1 Q 331.6 24.2 332.15 21.25 Q 332.7 18.3 333.3 15.4 Q 334.7 8.9 336.2 2 L 348.4 0.5 Q 345 15.8 342.4 29.5 Q 341.2 35.4 340.05 41.45 A 1275.455 1275.455 0 0 0 338.409 50.244 A 1116.437 1116.437 0 0 0 337.9 53.05 Q 336.9 58.6 336.2 63.35 A 573.88 573.88 0 0 0 335.869 65.628 Q 335.415 68.795 335.12 71.144 A 200.865 200.865 0 0 0 335.1 71.3 A 1.452 1.452 0 0 0 334.926 71.316 Q 334.416 71.384 332.75 71.75 A 594.143 594.143 0 0 0 330.841 72.172 Q 329.866 72.39 328.783 72.634 A 1018.838 1018.838 0 0 0 328.05 72.8 L 322.75 74 A 60.774 60.774 0 0 0 321.509 74.294 Q 320.198 74.62 319.321 74.914 A 12.664 12.664 0 0 0 318.8 75.1 Q 318.2 67.1 317.5 59.9 Q 317.2 56.8 316.85 53.55 Q 316.5 50.3 316.1 47.3 Q 315.7 44.3 315.3 41.7 A 111.661 111.661 0 0 0 315 39.848 Q 314.75 38.387 314.5 37.2 Q 314.294 38.506 313.993 40.096 A 147.272 147.272 0 0 1 313.7 41.6 Q 313.2 44.1 312.7 46.9 Q 312.2 49.7 311.7 52.75 Q 311.2 55.8 310.6 58.6 Q 309.3 65.3 307.8 72.6 Z M 76.8 70.6 L 44.5 75.6 L 57.6 4.5 L 89.2 1.8 Q 88.5 4 88 6.3 A 97.381 97.381 0 0 0 87.163 9.74 A 107.461 107.461 0 0 0 87.05 10.25 A 151.292 151.292 0 0 0 86.685 11.958 Q 86.523 12.739 86.387 13.441 A 87.26 87.26 0 0 0 86.3 13.9 Q 85.534 13.977 84.27 14.024 A 79.513 79.513 0 0 1 83.45 14.05 Q 81.6 14.1 79.5 14.15 Q 77.4 14.2 75.25 14.2 L 71.5 14.2 L 68 32.1 Q 71.1 31.9 73.8 31.8 Q 76 31.7 78.3 31.7 Q 80.6 31.7 81.7 31.6 Q 81.3 34.4 80.95 37.1 A 109.062 109.062 0 0 1 80.945 37.142 A 116.529 116.529 0 0 1 80.1 42.6 Q 79.137 42.696 77.016 42.746 A 126.455 126.455 0 0 1 76.85 42.75 Q 74.6 42.8 72.3 42.9 Q 69.7 43 66.6 43.1 L 63.2 61.5 L 77.8 59.2 L 76.8 70.6 Z M 171.9 58.4 L 163.2 58.4 L 159.2 72.8 A 204.667 204.667 0 0 1 157.437 73.032 Q 156.656 73.132 155.797 73.236 A 373.215 373.215 0 0 1 154 73.45 Q 151 73.8 148.4 74.1 Q 145.2 74.5 142.1 74.9 Q 146.1 61.6 150 48.7 Q 151.6 43.3 153.35 37.4 Q 155.1 31.5 156.85 25.65 Q 158.6 19.8 160.2 14.4 Q 161.8 9 163 4.5 Q 169.8 4 176.85 3.3 Q 183.9 2.6 190.6 1.4 Q 190.3 4.6 189.95 9.35 Q 189.6 14.1 189.3 19.7 A 2594.46 2594.46 0 0 0 188.85 28.381 A 2945.153 2945.153 0 0 0 188.7 31.4 Q 188.4 37.5 188.1 43.4 Q 187.6 57.2 187 72.7 Q 184 73.2 181 73.5 Q 178.5 73.9 175.5 74.4 L 170.1 75.3 Q 170.5 72 170.9 68.8 Q 171.2 66 171.45 63.2 A 627.498 627.498 0 0 1 171.63 61.212 Q 171.703 60.431 171.77 59.728 A 324.173 324.173 0 0 1 171.9 58.4 Z M 277.1 58.4 L 268.4 58.4 L 264.4 72.8 A 204.667 204.667 0 0 1 262.637 73.032 Q 261.856 73.132 260.997 73.236 A 373.215 373.215 0 0 1 259.2 73.45 Q 256.2 73.8 253.6 74.1 Q 250.4 74.5 247.3 74.9 Q 251.3 61.6 255.2 48.7 Q 256.8 43.3 258.55 37.4 Q 260.3 31.5 262.05 25.65 Q 263.8 19.8 265.4 14.4 Q 267 9 268.2 4.5 Q 275 4 282.05 3.3 Q 289.1 2.6 295.8 1.4 Q 295.5 4.6 295.15 9.35 Q 294.8 14.1 294.5 19.7 A 2594.46 2594.46 0 0 0 294.05 28.381 A 2945.153 2945.153 0 0 0 293.9 31.4 Q 293.6 37.5 293.3 43.4 Q 292.8 57.2 292.2 72.7 Q 289.2 73.2 286.2 73.5 Q 283.7 73.9 280.7 74.4 L 275.3 75.3 Q 275.7 72 276.1 68.8 Q 276.4 66 276.65 63.2 A 627.498 627.498 0 0 1 276.83 61.212 Q 276.903 60.431 276.97 59.728 A 324.173 324.173 0 0 1 277.1 58.4 Z M 385.8 58.4 L 377.1 58.4 L 373.1 72.8 A 204.667 204.667 0 0 1 371.337 73.032 Q 370.556 73.132 369.697 73.236 A 373.215 373.215 0 0 1 367.9 73.45 Q 364.9 73.8 362.3 74.1 Q 359.1 74.5 356 74.9 Q 360 61.6 363.9 48.7 Q 365.5 43.3 367.25 37.4 Q 369 31.5 370.75 25.65 Q 372.5 19.8 374.1 14.4 Q 375.7 9 376.9 4.5 Q 383.7 4 390.75 3.3 Q 397.8 2.6 404.5 1.4 Q 404.2 4.6 403.85 9.35 Q 403.5 14.1 403.2 19.7 A 2594.46 2594.46 0 0 0 402.75 28.381 A 2945.153 2945.153 0 0 0 402.6 31.4 Q 402.3 37.5 402 43.4 Q 401.5 57.2 400.9 72.7 Q 397.9 73.2 394.9 73.5 Q 392.4 73.9 389.4 74.4 L 384 75.3 Q 384.4 72 384.8 68.8 Q 385.1 66 385.35 63.2 A 627.498 627.498 0 0 1 385.53 61.212 Q 385.603 60.431 385.67 59.728 A 324.173 324.173 0 0 1 385.8 58.4 Z M 452.4 19 L 439.3 22.5 A 8.176 8.176 0 0 0 438.726 21.48 Q 437.972 20.358 437.082 20.087 A 1.983 1.983 0 0 0 436.5 20 Q 435.334 20 434.089 20.982 A 8.827 8.827 0 0 0 433.15 21.85 A 19.932 19.932 0 0 0 431.628 23.679 Q 430.899 24.663 430.179 25.842 A 36.927 36.927 0 0 0 429.7 26.65 A 60.926 60.926 0 0 0 427.819 30.19 A 77.126 77.126 0 0 0 426.4 33.25 Q 424.8 36.9 423.6 40.6 A 84.269 84.269 0 0 0 422.276 45.088 A 69.824 69.824 0 0 0 421.65 47.65 Q 420.934 50.847 420.902 52.906 A 12.247 12.247 0 0 0 420.9 53.1 Q 420.9 55.611 421.423 56.952 A 3.521 3.521 0 0 0 421.75 57.6 A 3.243 3.243 0 0 0 422.399 58.34 A 2.445 2.445 0 0 0 424 58.9 Q 424.814 58.9 425.793 58.434 A 7.949 7.949 0 0 0 426.5 58.05 A 11.014 11.014 0 0 0 428.527 56.455 A 12.944 12.944 0 0 0 429.1 55.85 Q 430.3 54.5 431.3 52.8 A 13.178 13.178 0 0 0 432.296 50.728 A 11.011 11.011 0 0 0 432.7 49.4 L 444.1 54 Q 441.7 59.5 438.75 63.55 A 43.254 43.254 0 0 1 435.434 67.591 A 33.845 33.845 0 0 1 432.55 70.35 Q 429.3 73.1 426 74.4 A 19.127 19.127 0 0 1 422.351 75.451 A 15.638 15.638 0 0 1 419.6 75.7 A 11.869 11.869 0 0 1 415.428 74.977 A 11.135 11.135 0 0 1 413.95 74.3 A 11.964 11.964 0 0 1 410.883 71.86 A 15.416 15.416 0 0 1 409.5 70.1 Q 407.6 67.3 406.45 63.2 A 29.112 29.112 0 0 1 405.625 59.049 Q 405.3 56.522 405.3 53.6 Q 405.3 44.2 407.9 35.05 A 63.457 63.457 0 0 1 412.658 22.975 A 55.831 55.831 0 0 1 415.2 18.6 A 43.567 43.567 0 0 1 421.759 10.588 A 37.657 37.657 0 0 1 426.35 6.85 Q 432.8 2.4 440.6 2.4 Q 443 2.4 445.2 3.4 Q 447.4 4.4 449 6.2 A 12.58 12.58 0 0 1 450.82 8.907 A 15.752 15.752 0 0 1 451.55 10.6 A 15.558 15.558 0 0 1 452.383 14.224 A 19.591 19.591 0 0 1 452.5 16.4 L 452.5 17.65 A 9.251 9.251 0 0 1 452.444 18.653 A 10.52 10.52 0 0 1 452.4 19 Z M 135 72.8 L 117 75.6 Q 119.3 64.6 121.4 53.9 Q 122.3 49.4 123.2 44.5 Q 124.1 39.6 124.95 34.85 Q 125.8 30.1 126.45 25.65 Q 127.1 21.2 127.6 17.5 A 26.863 26.863 0 0 0 124.122 17.275 A 27.561 27.561 0 0 0 122.95 17.3 Q 120.6 17.4 118.3 16.7 Q 118.386 15.325 118.398 13.581 A 83.837 83.837 0 0 0 118.4 13 Q 118.4 10.9 118.5 8.8 Q 118.6 6.5 118.7 3.9 Q 121.3 4.1 123.9 4.2 Q 126.5 4.3 129.1 4.3 Q 134.2 4.3 138.95 4.05 Q 143.7 3.8 147.75 3.45 Q 151.8 3.1 155.7 2.6 L 154.6 8 Q 154.1 10.3 153.65 12.7 A 126.512 126.512 0 0 1 153.32 14.402 Q 153.185 15.07 153.055 15.669 A 65.388 65.388 0 0 1 152.8 16.8 Q 150.6 17.4 148.35 17.65 Q 146.1 17.9 143.9 18.3 Q 143.2 21.7 142.4 25.85 A 368.165 368.165 0 0 0 141.038 33.342 A 405.858 405.858 0 0 0 140.85 34.45 Q 140.1 38.9 139.4 43.5 Q 138.7 48.1 138 52.3 Q 136.4 62.2 135 72.8 Z M 50.5 24.4 Q 50.5 29.6 49 35.45 Q 47.5 41.3 44.8 47.05 Q 42.1 52.8 38.15 58.05 Q 34.2 63.3 29.2 67.25 Q 24.2 71.2 18.25 73.6 Q 12.3 76 5.6 76 Q 4.2 76 2.8 75.85 Q 1.4 75.7 0 75.5 Q 2.7 61.7 5.3 48.6 A 3826.935 3826.935 0 0 1 6.856 40.097 A 4305.469 4305.469 0 0 1 7.4 37.15 Q 8.5 31.2 9.5 25.4 A 1761.089 1761.089 0 0 1 10.972 16.981 A 1539.311 1539.311 0 0 1 11.45 14.3 A 297.15 297.15 0 0 0 12.309 9.269 Q 12.699 6.858 13 4.7 Q 17.3 3.9 21.7 3.2 Q 26.1 2.5 30.7 2.5 A 28.565 28.565 0 0 1 34.778 2.775 Q 37.609 3.184 39.85 4.2 A 16.673 16.673 0 0 1 44.169 6.991 A 15.124 15.124 0 0 1 45.95 8.9 A 19.24 19.24 0 0 1 49.023 14.667 A 22.607 22.607 0 0 1 49.4 15.9 A 31.183 31.183 0 0 1 50.461 22.73 A 35.712 35.712 0 0 1 50.5 24.4 Z M 91.8 4.2 L 109.3 1.9 A 4459.118 4459.118 0 0 0 104.178 24.156 A 4109.026 4109.026 0 0 0 104.1 24.5 Q 103 29.2 101.9 34.25 Q 100.8 39.3 99.8 44.1 A 330.472 330.472 0 0 0 98.412 51.131 A 297.247 297.247 0 0 0 98 53.4 Q 97.2 57.9 96.7 61.4 Q 99.2 61.2 102.05 61.15 A 360.848 360.848 0 0 1 104.419 61.116 Q 105.862 61.1 107.1 61.1 Q 107.2 63 107.4 64.85 Q 107.6 66.7 107.85 68.2 Q 108.065 69.489 108.206 70.52 A 53.249 53.249 0 0 1 108.25 70.85 A 44.7 44.7 0 0 0 108.318 71.348 Q 108.405 71.963 108.472 72.279 A 3.58 3.58 0 0 0 108.5 72.4 A 23.585 23.585 0 0 1 107.138 72.362 A 21.484 21.484 0 0 1 106.95 72.35 A 23.04 23.04 0 0 0 105.599 72.301 A 25.303 25.303 0 0 0 105.4 72.3 A 107.776 107.776 0 0 0 100.972 72.395 A 126.725 126.725 0 0 0 98.85 72.5 Q 95.4 72.7 91.9 73.1 Q 88.4 73.5 85.05 74.15 Q 81.7 74.8 79 75.7 Q 79.6 71.2 80.4 65.7 Q 81.2 60.2 82.25 54.3 Q 83.3 48.4 84.35 42.4 A 500.3 500.3 0 0 1 85.953 33.681 A 441.651 441.651 0 0 1 86.5 30.9 Q 89 17.8 91.8 4.2 Z M 350.8 5.5 L 366.4 3 Q 364.1 16.4 361.9 29.3 Q 361 34.8 360.05 40.7 Q 359.1 46.6 358.15 52.4 A 694.675 694.675 0 0 0 356.602 62.282 A 629.799 629.799 0 0 0 356.4 63.65 Q 355.6 69.1 354.9 73.5 A 11.479 11.479 0 0 0 354.423 73.512 Q 353.42 73.555 351.35 73.75 A 180.118 180.118 0 0 0 346.249 74.307 A 196.366 196.366 0 0 0 345.9 74.35 A 737.714 737.714 0 0 0 343.277 74.682 Q 342.033 74.842 340.922 74.99 A 465.832 465.832 0 0 0 340.85 75 Q 338.6 75.3 338.4 75.4 Q 339.4 71.1 340.45 65.85 Q 341.5 60.6 342.6 54.85 Q 343.7 49.1 344.7 43.2 A 2085.484 2085.484 0 0 0 346.144 34.575 A 1872.934 1872.934 0 0 0 346.6 31.8 Q 348.7 19 350.8 5.5 Z M 25.194 25.169 A 346.618 346.618 0 0 0 26.9 16.6 A 15.315 15.315 0 0 1 28.805 16.712 Q 30.025 16.865 31.01 17.228 A 6.217 6.217 0 0 1 33.35 18.7 Q 34.695 20.078 35.158 22.145 A 10.782 10.782 0 0 1 35.4 24.5 A 20.187 20.187 0 0 1 35.364 25.674 Q 35.305 26.694 35.146 27.852 A 41.025 41.025 0 0 1 34.75 30.2 Q 34.1 33.5 32.9 37.3 Q 31.7 41.1 30.05 45.1 Q 28.4 49.1 26.4 52.7 A 49.186 49.186 0 0 1 24.799 55.383 A 39.36 39.36 0 0 1 22.15 59.05 Q 19.9 61.8 17.5 63.4 Q 18.6 56.3 19.8 50.3 Q 21 44.3 22.2 38.8 Q 23.4 33.3 24.6 27.9 A 306.459 306.459 0 0 0 25.194 25.169 Z M 171.8 23.3 L 165.6 48.4 A 10.899 10.899 0 0 0 165.832 48.397 Q 166.155 48.39 166.698 48.366 A 97.941 97.941 0 0 0 167.05 48.35 Q 168.1 48.3 169.25 48.25 Q 170.4 48.2 171.4 48.15 Q 172.4 48.1 172.8 48 Q 172.8 47.447 172.927 46.174 A 64.141 64.141 0 0 1 172.95 45.95 A 124.263 124.263 0 0 0 173.091 44.503 Q 173.16 43.742 173.23 42.894 A 208.597 208.597 0 0 0 173.25 42.65 Q 173.4 40.8 173.6 38.6 Q 173.8 36.4 174 34.3 Q 174.4 29.2 175 23.3 L 175.6 14.6 L 174.1 14.7 L 171.8 23.3 Z M 277 23.3 L 270.8 48.4 A 10.899 10.899 0 0 0 271.032 48.397 Q 271.355 48.39 271.898 48.366 A 97.941 97.941 0 0 0 272.25 48.35 Q 273.3 48.3 274.45 48.25 Q 275.6 48.2 276.6 48.15 Q 277.6 48.1 278 48 Q 278 47.447 278.127 46.174 A 64.141 64.141 0 0 1 278.15 45.95 A 124.263 124.263 0 0 0 278.291 44.503 Q 278.36 43.742 278.43 42.894 A 208.597 208.597 0 0 0 278.45 42.65 Q 278.6 40.8 278.8 38.6 Q 279 36.4 279.2 34.3 Q 279.6 29.2 280.2 23.3 L 280.8 14.6 L 279.3 14.7 L 277 23.3 Z M 385.7 23.3 L 379.5 48.4 A 10.899 10.899 0 0 0 379.732 48.397 Q 380.055 48.39 380.598 48.366 A 97.941 97.941 0 0 0 380.95 48.35 Q 382 48.3 383.15 48.25 Q 384.3 48.2 385.3 48.15 Q 386.3 48.1 386.7 48 Q 386.7 47.447 386.827 46.174 A 64.141 64.141 0 0 1 386.85 45.95 A 124.263 124.263 0 0 0 386.991 44.503 Q 387.06 43.742 387.13 42.894 A 208.597 208.597 0 0 0 387.15 42.65 Q 387.3 40.8 387.5 38.6 Q 387.7 36.4 387.9 34.3 Q 388.3 29.2 388.9 23.3 L 389.5 14.6 L 388 14.7 L 385.7 23.3 Z" vector-effect="non-scaling-stroke"/></g>
    <g id="hi" stroke-linecap="round" fill-rule="evenodd" font-size="9pt" fill="#aaa"><path d="M 235.15 36.9 L 226.9 37.45 Q 229.1 30.8 231.1 24.4 Q 231.95 21.7 232.85 18.75 Q 233.75 15.8 234.65 12.9 A 281.576 281.576 0 0 0 235.93 8.663 A 250.334 250.334 0 0 0 236.325 7.3 Q 237.1 4.6 237.7 2.3 A 45.06 45.06 0 0 0 241.339 2.158 A 38.322 38.322 0 0 0 242.9 2 Q 245.35 1.7 248.2 1.45 Q 248.055 2.515 247.886 3.837 A 384.974 384.974 0 0 0 247.875 3.925 A 126.048 126.048 0 0 1 247.584 6.058 A 144.097 144.097 0 0 1 247.475 6.8 Q 247.25 8.3 247 9.9 Q 246.776 11.331 246.473 13.483 A 467.452 467.452 0 0 0 246.4 14 Q 246.05 16.5 245.45 20.25 L 246.1 20.25 Q 247.55 16.45 248.5 13.925 Q 249.45 11.4 250.05 9.8 Q 250.65 8.2 251.275 6.675 Q 251.9 5.15 252.475 3.775 A 68.122 68.122 0 0 1 252.964 2.634 Q 253.193 2.114 253.408 1.652 A 39.821 39.821 0 0 1 253.55 1.35 A 45.554 45.554 0 0 0 255.054 1.205 A 37.914 37.914 0 0 0 255.9 1.1 Q 257 0.95 258.1 0.775 Q 259.2 0.6 260.325 0.425 A 76.187 76.187 0 0 0 261.506 0.231 A 100.847 100.847 0 0 0 262.8 0 Q 262.3 2.9 261.85 5.95 Q 261.4 9 261.05 12.025 Q 260.7 15.05 260.375 18 A 390.555 390.555 0 0 0 260.069 20.875 A 331.741 331.741 0 0 0 259.8 23.6 Q 259.2 29.8 258.75 35.7 L 250.05 37.25 A 3.769 3.769 0 0 1 250.053 37.126 Q 250.063 36.82 250.116 36.038 A 132.88 132.88 0 0 1 250.125 35.9 A 195.575 195.575 0 0 1 250.188 35.005 Q 250.247 34.2 250.325 33.2 Q 250.45 31.6 250.675 29.65 L 251.125 25.75 A 181.232 181.232 0 0 1 251.538 22.433 A 164.564 164.564 0 0 1 251.6 21.975 Q 251.791 20.578 251.983 19.488 A 40.402 40.402 0 0 1 252.1 18.85 L 251.65 18.85 Q 250.95 20.95 250.1 23.275 Q 249.25 25.6 248.375 28 Q 247.5 30.4 246.65 32.7 Q 245.8 35 245.15 37.1 A 132.283 132.283 0 0 0 243.908 37.141 Q 242.931 37.178 242.15 37.225 Q 241.076 37.289 239.706 37.372 A 6864.385 6864.385 0 0 0 239.25 37.4 L 240.85 18.85 L 240.1 18.85 A 8.505 8.505 0 0 1 240.031 19.23 Q 239.914 19.813 239.661 20.789 A 67.952 67.952 0 0 1 239.6 21.025 A 889.555 889.555 0 0 1 239.226 22.446 Q 238.97 23.414 238.675 24.525 A 268.92 268.92 0 0 1 237.845 27.572 A 301.735 301.735 0 0 1 237.55 28.625 A 937.762 937.762 0 0 1 236.969 30.675 A 748.191 748.191 0 0 1 236.425 32.575 A 546.286 546.286 0 0 1 236.173 33.447 Q 235.813 34.694 235.55 35.575 A 498.692 498.692 0 0 1 235.467 35.853 Q 235.211 36.71 235.157 36.88 A 2.118 2.118 0 0 1 235.15 36.9 Z M 93.85 36.25 L 86.15 37.85 Q 87.55 30.85 88.85 24.2 Q 89.35 21.35 89.9 18.275 Q 90.45 15.2 90.925 12.2 A 774.173 774.173 0 0 0 91.718 7.084 A 705.665 705.665 0 0 0 91.825 6.375 A 148.384 148.384 0 0 0 92.206 3.681 A 108.21 108.21 0 0 0 92.5 1.25 A 72.455 72.455 0 0 1 93.606 1.306 A 56.75 56.75 0 0 1 94.625 1.375 Q 95.6 1.45 96.55 1.5 Q 97.5 1.55 98.475 1.575 A 73.559 73.559 0 0 0 99.494 1.594 A 94.144 94.144 0 0 0 100.6 1.6 Q 99.75 5.15 98.925 8.7 Q 98.1 12.25 97.4 15.85 L 102.35 15.3 A 233.551 233.551 0 0 0 103.316 10.102 A 209.812 209.812 0 0 0 103.6 8.425 Q 104.15 5.1 105.05 1.55 Q 106.2 1.35 107.6 1.225 A 497.571 497.571 0 0 1 108.95 1.106 A 394.786 394.786 0 0 1 110.2 1 A 388.184 388.184 0 0 0 111.047 0.929 Q 111.709 0.872 112.225 0.825 L 113.05 0.75 A 64.214 64.214 0 0 0 112.286 3.416 A 80.763 80.763 0 0 0 111.725 5.675 Q 111.1 8.35 110.5 11.225 Q 109.9 14.1 109.35 17.05 Q 108.8 20 108.35 22.65 Q 107.25 29 106.3 35.65 L 98.5 36.55 A 151.115 151.115 0 0 0 99.587 31.057 A 138.213 138.213 0 0 0 99.65 30.7 A 806.529 806.529 0 0 0 100.414 26.988 A 906.713 906.713 0 0 0 100.675 25.7 Q 101.036 23.913 101.291 22.479 A 83.027 83.027 0 0 0 101.5 21.25 L 96.65 21.7 Q 96.3 23.6 95.825 26.1 A 443.546 443.546 0 0 0 95.369 28.538 A 377.509 377.509 0 0 0 94.95 30.85 L 93.85 36.25 Z M 7.7 36.25 L 0 37.85 Q 1.3 30.95 2.55 24.3 A 280.022 280.022 0 0 1 3.281 19.973 A 315.794 315.794 0 0 1 3.55 18.475 Q 4.1 15.45 4.6 12.5 A 823.754 823.754 0 0 0 5.437 7.471 A 749.672 749.672 0 0 0 5.55 6.775 Q 6 4 6.35 1.7 L 14.45 1.15 A 297.896 297.896 0 0 0 13.189 6.569 A 333.9 333.9 0 0 0 12.775 8.45 A 349.687 349.687 0 0 0 11.338 15.399 A 319.91 319.91 0 0 0 11.25 15.85 L 16.2 15.3 A 233.551 233.551 0 0 0 17.166 10.102 A 209.812 209.812 0 0 0 17.45 8.425 Q 18 5.1 18.9 1.55 Q 20.05 1.35 21.45 1.225 A 497.571 497.571 0 0 1 22.8 1.106 A 394.786 394.786 0 0 1 24.05 1 A 388.184 388.184 0 0 0 24.897 0.929 Q 25.559 0.872 26.075 0.825 L 26.9 0.75 A 64.214 64.214 0 0 0 26.136 3.416 A 80.763 80.763 0 0 0 25.575 5.675 Q 24.95 8.35 24.35 11.225 Q 23.75 14.1 23.2 17.05 Q 22.65 20 22.2 22.65 Q 21.1 29 20.15 35.65 L 12.35 36.55 A 151.115 151.115 0 0 0 13.437 31.057 A 138.213 138.213 0 0 0 13.5 30.7 A 806.529 806.529 0 0 0 14.264 26.988 A 906.713 906.713 0 0 0 14.525 25.7 Q 14.886 23.913 15.141 22.479 A 83.027 83.027 0 0 0 15.35 21.25 L 10.5 21.7 Q 10.15 23.6 9.675 26.1 Q 9.2 28.6 8.8 30.85 L 7.7 36.25 Z M 133.15 35.7 L 125.05 37.8 Q 126.4 31.15 127.65 24.8 A 267.63 267.63 0 0 1 128.381 20.623 A 303.118 303.118 0 0 1 128.65 19.175 Q 129.2 16.25 129.675 13.375 Q 130.15 10.5 130.575 7.825 A 129.612 129.612 0 0 0 130.956 5.269 A 95.849 95.849 0 0 0 131.25 2.95 A 33.694 33.694 0 0 1 135.381 1.937 A 39.694 39.694 0 0 1 137.4 1.625 Q 140.7 1.2 143.95 1.2 A 13.973 13.973 0 0 1 145.264 1.258 Q 145.914 1.32 146.466 1.446 A 6.499 6.499 0 0 1 147.175 1.65 A 5.69 5.69 0 0 1 148.169 2.106 A 4.077 4.077 0 0 1 149.175 2.925 Q 149.9 3.75 150.2 4.85 A 8.331 8.331 0 0 1 150.443 6.167 A 10.777 10.777 0 0 1 150.5 7.3 Q 150.5 9.3 149.8 11.225 Q 149.1 13.15 147.925 14.875 Q 146.75 16.6 145.225 18.025 A 14.626 14.626 0 0 1 142.276 20.177 A 13.637 13.637 0 0 1 141.95 20.35 A 274.917 274.917 0 0 1 142.881 22.444 A 352.002 352.002 0 0 1 143.875 24.725 A 484.607 484.607 0 0 1 144.869 27.044 A 414.527 414.527 0 0 1 145.8 29.25 Q 146.8 31.75 147.85 34.25 L 140.1 36.95 Q 139.1 33.75 138.3 30.95 A 143.756 143.756 0 0 1 137.644 28.728 A 156.809 156.809 0 0 1 137.6 28.575 A 218.15 218.15 0 0 1 137.263 27.381 A 184.706 184.706 0 0 1 136.95 26.25 A 59.765 59.765 0 0 1 136.691 25.268 Q 136.573 24.806 136.477 24.392 A 34.904 34.904 0 0 1 136.45 24.275 A 18.062 18.062 0 0 1 136.34 23.76 Q 136.234 23.228 136.2 22.85 L 135.55 23.05 Q 135.25 24.65 134.825 26.8 A 198.478 198.478 0 0 0 134.23 29.941 A 176.835 176.835 0 0 0 134.05 30.95 Q 133.6 33.3 133.15 35.7 Z M 38.2 35.3 L 22.05 37.8 L 28.6 2.25 L 44.4 0.9 Q 44.05 2 43.8 3.15 A 48.691 48.691 0 0 0 43.382 4.87 A 53.71 53.71 0 0 0 43.325 5.125 A 75.643 75.643 0 0 0 43.142 5.979 Q 43.061 6.37 42.994 6.721 A 43.627 43.627 0 0 0 42.95 6.95 A 10.114 10.114 0 0 1 42.673 6.973 Q 42.219 7.006 41.525 7.025 Q 40.6 7.05 39.55 7.075 Q 38.5 7.1 37.425 7.1 L 35.55 7.1 L 33.8 16.05 Q 35.35 15.95 36.7 15.9 Q 37.8 15.85 38.95 15.85 Q 40.079 15.85 40.63 15.802 A 6.036 6.036 0 0 0 40.65 15.8 Q 40.45 17.2 40.275 18.55 Q 40.1 19.9 39.85 21.3 A 8.881 8.881 0 0 1 39.561 21.323 Q 39.093 21.355 38.308 21.373 A 63.227 63.227 0 0 1 38.225 21.375 Q 37.1 21.4 35.95 21.45 Q 34.65 21.5 33.1 21.55 L 31.4 30.75 L 38.7 29.6 L 38.2 35.3 Z M 124.35 35.3 L 108.2 37.8 L 114.75 2.25 L 130.55 0.9 Q 130.2 2 129.95 3.15 A 48.691 48.691 0 0 0 129.532 4.87 A 53.71 53.71 0 0 0 129.475 5.125 A 75.643 75.643 0 0 0 129.292 5.979 Q 129.211 6.37 129.144 6.721 A 43.627 43.627 0 0 0 129.1 6.95 A 10.114 10.114 0 0 1 128.823 6.973 Q 128.369 7.006 127.675 7.025 Q 126.75 7.05 125.7 7.075 Q 124.65 7.1 123.575 7.1 L 121.7 7.1 L 119.95 16.05 Q 121.5 15.95 122.85 15.9 Q 123.95 15.85 125.1 15.85 Q 126.229 15.85 126.78 15.802 A 6.036 6.036 0 0 0 126.8 15.8 Q 126.6 17.2 126.425 18.55 Q 126.25 19.9 126 21.3 A 8.881 8.881 0 0 1 125.711 21.323 Q 125.243 21.355 124.458 21.373 A 63.227 63.227 0 0 1 124.375 21.375 Q 123.25 21.4 122.1 21.45 Q 120.8 21.5 119.25 21.55 L 117.55 30.75 L 124.85 29.6 L 124.35 35.3 Z M 163.6 35.3 L 147.45 37.8 L 154 2.25 L 169.8 0.9 Q 169.45 2 169.2 3.15 A 48.691 48.691 0 0 0 168.782 4.87 A 53.71 53.71 0 0 0 168.725 5.125 A 75.643 75.643 0 0 0 168.542 5.979 Q 168.461 6.37 168.394 6.721 A 43.627 43.627 0 0 0 168.35 6.95 A 10.114 10.114 0 0 1 168.073 6.973 Q 167.619 7.006 166.925 7.025 Q 166 7.05 164.95 7.075 Q 163.9 7.1 162.825 7.1 L 160.95 7.1 L 159.2 16.05 Q 160.75 15.95 162.1 15.9 Q 163.2 15.85 164.35 15.85 Q 165.479 15.85 166.03 15.802 A 6.036 6.036 0 0 0 166.05 15.8 Q 165.85 17.2 165.675 18.55 Q 165.5 19.9 165.25 21.3 A 8.881 8.881 0 0 1 164.961 21.323 Q 164.493 21.355 163.708 21.373 A 63.227 63.227 0 0 1 163.625 21.375 Q 162.5 21.4 161.35 21.45 Q 160.05 21.5 158.5 21.55 L 156.8 30.75 L 164.1 29.6 L 163.6 35.3 Z M 51.1 35.95 L 42.55 37 L 44.85 26.95 A 140.062 140.062 0 0 0 44.831 24.706 A 178.32 178.32 0 0 0 44.775 22.275 Q 44.7 19.75 44.55 17.2 Q 44.4 14.65 44.25 12.275 Q 44.121 10.234 44.029 8.599 A 358.713 358.713 0 0 1 44 8.075 Q 43.911 6.442 43.821 5.39 A 41.14 41.14 0 0 0 43.8 5.15 L 43.7 4.05 L 51.85 0.95 L 51.85 7.05 L 51.85 9.6 Q 51.85 10.9 51.825 12.15 A 129.662 129.662 0 0 0 51.806 13.363 A 107.014 107.014 0 0 0 51.8 14.5 L 51.8 16.35 A 294.6 294.6 0 0 0 52.326 14.963 Q 52.562 14.338 52.824 13.634 A 619.083 619.083 0 0 0 53.375 12.15 A 201.521 201.521 0 0 0 54.692 8.484 A 180.987 180.987 0 0 0 55.1 7.3 Q 56.05 4.55 57.05 1.5 L 64.8 3.25 Q 62.65 7.55 60.6 11.8 A 233.221 233.221 0 0 1 59.269 14.645 A 260.302 260.302 0 0 1 58.8 15.625 L 56.9 19.575 A 970.04 970.04 0 0 1 55.276 22.936 A 880.993 880.993 0 0 1 55.05 23.4 Q 54.15 25.25 53.4 26.85 A 53.825 53.825 0 0 1 53.119 28.212 A 71.136 71.136 0 0 1 52.775 29.7 A 431.179 431.179 0 0 1 52.406 31.213 A 371.22 371.22 0 0 1 52.05 32.65 Q 51.6 34.3 51.1 35.95 Z M 220.6 29.2 L 216.25 29.2 L 214.25 36.4 A 102.333 102.333 0 0 1 213.369 36.516 Q 212.588 36.616 211.65 36.725 A 2487.836 2487.836 0 0 1 210.2 36.894 A 2007.293 2007.293 0 0 1 208.85 37.05 Q 207.25 37.25 205.7 37.45 Q 207.7 30.8 209.65 24.35 A 19785.848 19785.848 0 0 1 210.892 20.159 A 22556.1 22556.1 0 0 1 211.325 18.7 Q 212.2 15.75 213.075 12.825 A 2314.462 2314.462 0 0 0 214.345 8.564 A 2047.73 2047.73 0 0 0 214.75 7.2 Q 215.55 4.5 216.15 2.25 Q 219.55 2 223.075 1.65 Q 226.6 1.3 229.95 0.7 A 129.616 129.616 0 0 0 229.873 1.548 Q 229.758 2.872 229.629 4.619 A 357.84 357.84 0 0 0 229.625 4.675 A 229.915 229.915 0 0 0 229.456 7.156 A 293.661 293.661 0 0 0 229.3 9.85 Q 229.15 12.65 229 15.7 Q 228.85 18.75 228.7 21.7 Q 228.45 28.6 228.15 36.35 Q 226.65 36.6 225.15 36.75 Q 223.9 36.95 222.4 37.2 L 219.7 37.65 Q 219.9 36 220.1 34.4 Q 220.25 33 220.375 31.6 A 313.744 313.744 0 0 1 220.465 30.606 Q 220.538 29.825 220.6 29.2 Z M 81.15 36.4 L 72.15 37.8 Q 73.3 32.3 74.35 26.95 Q 74.8 24.7 75.25 22.25 Q 75.7 19.8 76.125 17.425 A 149.538 149.538 0 0 0 76.706 13.947 A 134.449 134.449 0 0 0 76.875 12.825 A 443.444 443.444 0 0 0 77.181 10.694 A 335.576 335.576 0 0 0 77.45 8.75 Q 76.3 8.6 75.125 8.65 Q 73.95 8.7 72.8 8.35 A 23.836 23.836 0 0 0 72.834 7.602 Q 72.85 7.091 72.85 6.5 Q 72.85 5.45 72.9 4.4 Q 72.95 3.25 73 1.95 Q 74.3 2.05 75.6 2.1 Q 76.9 2.15 78.2 2.15 A 96.257 96.257 0 0 0 81.927 2.08 A 86.671 86.671 0 0 0 83.125 2.025 Q 85.5 1.9 87.525 1.725 Q 89.55 1.55 91.5 1.3 L 90.95 4 Q 90.7 5.15 90.475 6.35 A 63.256 63.256 0 0 1 90.31 7.201 Q 90.175 7.869 90.05 8.4 Q 88.95 8.7 87.825 8.825 Q 86.7 8.95 85.6 9.15 Q 85.25 10.85 84.85 12.925 A 184.084 184.084 0 0 0 84.169 16.671 A 202.886 202.886 0 0 0 84.075 17.225 Q 83.7 19.45 83.35 21.75 Q 83 24.05 82.65 26.15 A 354.259 354.259 0 0 0 81.327 35.08 A 389.712 389.712 0 0 0 81.15 36.4 Z M 193.9 2.75 L 201.7 1.5 Q 200.4 8.2 199.1 14.65 Q 198.55 17.4 197.975 20.35 Q 197.4 23.3 196.875 26.2 A 512.605 512.605 0 0 1 195.891 31.484 A 467.229 467.229 0 0 1 195.825 31.825 Q 195.3 34.55 194.9 36.75 Q 194.532 36.75 193.598 36.833 A 65.692 65.692 0 0 0 193.15 36.875 A 92.715 92.715 0 0 0 191.144 37.091 A 104.016 104.016 0 0 0 190.45 37.175 Q 189.072 37.347 187.961 37.495 A 200.67 200.67 0 0 0 187.925 37.5 A 59.437 59.437 0 0 0 187.66 37.536 Q 186.796 37.655 186.702 37.699 A 0.075 0.075 0 0 0 186.7 37.7 A 90.645 90.645 0 0 0 187.3 35.431 A 120.049 120.049 0 0 0 187.9 32.925 A 512.544 512.544 0 0 0 188.814 28.847 A 584.622 584.622 0 0 0 189.125 27.425 Q 189.75 24.55 190.325 21.6 A 1203.789 1203.789 0 0 1 191.312 16.591 A 1084.495 1084.495 0 0 1 191.45 15.9 Q 192.7 9.5 193.9 2.75 Z M 174.2 25.9 Q 172.75 25.9 171.3 26 L 168.4 26.2 Q 169.95 20.05 171.425 13.95 Q 172.9 7.85 174.5 1.7 Q 175.316 1.571 176.336 1.442 A 86.952 86.952 0 0 1 176.675 1.4 Q 177.9 1.25 179.15 1.05 A 78.369 78.369 0 0 1 181.28 0.738 A 70.887 70.887 0 0 1 181.575 0.7 Q 182.75 0.55 183.55 0.4 Q 180.85 6.7 178.625 13.075 Q 176.4 19.45 174.2 25.9 Z M 220.55 11.65 L 217.45 24.2 Q 217.65 24.2 218.175 24.175 Q 218.7 24.15 219.275 24.125 Q 219.85 24.1 220.35 24.075 A 9.933 9.933 0 0 0 220.581 24.061 Q 220.893 24.038 221.043 24.002 A 0.897 0.897 0 0 0 221.05 24 A 3.896 3.896 0 0 1 221.055 23.823 Q 221.067 23.551 221.114 23.087 A 32.07 32.07 0 0 1 221.125 22.975 A 62.131 62.131 0 0 0 221.195 22.251 Q 221.23 21.871 221.265 21.447 A 104.348 104.348 0 0 0 221.275 21.325 A 183.644 183.644 0 0 1 221.356 20.356 A 238.375 238.375 0 0 1 221.45 19.3 Q 221.55 18.2 221.65 17.15 Q 221.85 14.6 222.15 11.65 L 222.45 7.3 L 221.7 7.35 L 220.55 11.65 Z M 174.7 33.75 Q 174.7 34.7 174.275 35.65 Q 173.85 36.6 173.05 37.325 A 5.311 5.311 0 0 1 171.91 38.106 A 6.902 6.902 0 0 1 171.05 38.475 A 7.189 7.189 0 0 1 169.633 38.813 A 9.726 9.726 0 0 1 168.3 38.9 A 4.754 4.754 0 0 1 167.138 38.763 A 4.043 4.043 0 0 1 166.4 38.5 A 3.937 3.937 0 0 1 165.485 37.91 A 3.454 3.454 0 0 1 165.025 37.425 Q 164.5 36.75 164.2 35.9 A 5.121 5.121 0 0 1 163.903 34.373 A 4.82 4.82 0 0 1 163.9 34.2 Q 163.9 33.25 164.2 32.375 Q 164.5 31.5 165.125 30.825 Q 165.75 30.15 166.675 29.7 Q 167.559 29.27 168.786 29.251 A 7.369 7.369 0 0 1 168.9 29.25 Q 170.808 29.25 172.088 29.845 A 4.317 4.317 0 0 1 173.25 30.625 A 5.091 5.091 0 0 1 174.162 31.756 A 3.903 3.903 0 0 1 174.7 33.75 Z M 138.4 8.15 L 136.8 16.1 Q 137.75 16 139.125 15.3 Q 140.5 14.6 141.75 13.625 A 16.127 16.127 0 0 0 143.111 12.441 A 13.143 13.143 0 0 0 143.9 11.6 A 5.806 5.806 0 0 0 144.325 11.044 Q 144.8 10.331 144.8 9.75 A 1.4 1.4 0 0 0 144.751 9.369 A 1.05 1.05 0 0 0 144.45 8.875 A 1.823 1.823 0 0 0 144.069 8.607 Q 143.884 8.508 143.658 8.432 A 3.563 3.563 0 0 0 143.475 8.375 Q 142.85 8.2 142.1 8.15 A 23.04 23.04 0 0 0 140.749 8.101 A 25.303 25.303 0 0 0 140.55 8.1 Q 140 8.1 139.425 8.125 Q 138.85 8.15 138.4 8.15 Z" vector-effect="non-scaling-stroke"/></g>
  </def>
  <use y="250" href="#cow" class="rotate" />
  <use href="#dm" x="950px" y="200px"  />
  <use href="#hi" x="1140px" y="150px"  />
</svg>
